<?xml version="1.0" encoding="UTF-8"?>
<svg id="Layer_2" data-name="Layer 2" xmlns="http://www.w3.org/2000/svg" viewBox="0 0 736 736">
  <defs>
    <style>
      .cls-1 {
        fill: #fff;
      }
    </style>
  </defs>
  <g id="Layer_1-2" data-name="Layer 1">
    <rect class="cls-1" x="0" y="0" width="736" height="736" rx="368" ry="368"/>
    <g>
      <path d="M402.5,380c-2.95-.64-7.25-6.1-6.55-9.45l.52-171.57,4.47-5.53,168.62-.5c4.32-.4,7.2,3.7,7.46,7.54-5.7,71.99,11.56,160.17-10.01,229.04-21.27,67.93-87.71,109.91-157.53,113.46-8.25.42-12.71-.24-13.55-9.43-1.29-14.12-1.29-42.99.01-57.09.4-4.26,1.09-7.72,5.47-9.53,6.5-2.69,17.03-3.75,24.53-6.47,37.51-13.61,54.93-40.85,57.04-80.46h-80.5Z"/>
      <path d="M164.5,380c-2.52-.54-5.77-4.67-5.52-7.48l.47-174.57,4.5-4.5,168.57-.47c3.98,0,5.75,2.61,7.01,5.99-.65,53.45,2.48,108.24.52,161.57-3.43,93.34-42.56,155.29-136.23,176.77-9.53,2.18-22.76,5.23-32.32,5.67-6.78.31-11.33.42-12.52-7.46l.6-64.49c1.7-5.63,13.41-5.74,18.64-7.32,43.21-12.98,65.56-36.92,66.78-83.72h-80.5Z"/>
    </g>
  </g>
</svg>